<svg xmlns="http://www.w3.org/2000/svg" width="2803.8" height="2795.821" viewBox="0 0 2803.8 2795.821">
  <g id="_Group__1_" data-name="_Group_ (1)" transform="translate(-0.1 0.024)">
    <path id="Path_1" data-name="Path 1" d="M2642.6,1862.5c-264.9,623.9-970.8,973.4-1582.8,879.1-99.6-15.3-372.7-61-614.5-276.6C-20,2049.9-119.6,1228.1,255.8,648.9,529.1,227.4,1018.9-11.5,1484.3.4c100.2,2.6,484.4,18.5,822.1,296.9,49.6,40.9,159,138.1,257.5,292.2,231.5,362,251.4,866.4,78.7,1273Z" fill="#e1e1e1"/>
    <path id="Path_2" data-name="Path 2" d="M160.4,890.2A110.9,110.9,0,0,1,274.1,776.8L2598.3,837c52.2-3.6,80.7,43.6,80.7,67.8l-19.8,1366.7a44.108,44.108,0,0,1-44,43.9H237a44.108,44.108,0,0,1-44-43.9Z" fill="#ccc"/>
    <path id="Path_3" data-name="Path 3" d="M203.3,908.7a78.084,78.084,0,0,1,79.9-79.8l2227.6,59.8c39.7-1.6,105.1,25.3,107.3,99.9l-18.6,1240.7a41.761,41.761,0,0,1-41.6,41.6H278.1a41.7,41.7,0,0,1-41.6-41.6Z" fill="#fff"/>
    <path id="Path_4" data-name="Path 4" d="M2574.8,1639.9h0a6.211,6.211,0,0,1-6.1-6.2l1.5-100.6a6.171,6.171,0,0,1,6.1-6h.1a6.063,6.063,0,0,1,6,6.2l-1.5,100.6A6.1,6.1,0,0,1,2574.8,1639.9Z" fill="#949494"/>
    <path id="Path_5" data-name="Path 5" d="M2578.4,1393.3h0a6.146,6.146,0,0,1-6.1-6.2l5.7-385.3c-.1-22.9-7-41.2-20.6-54.2-25.4-24.3-65.7-23.1-67.4-23l-712-19.1a6.064,6.064,0,0,1-5.9-6.3,5.751,5.751,0,0,1,6.2-5.9l711.6,19.1c4.4-.3,47.3-1,75.9,26.4,16.1,15.4,24.3,36.6,24.4,63l-5.7,385.5a5.977,5.977,0,0,1-6.1,6Z" fill="#949494"/>
    <path id="Path_6" data-name="Path 6" d="M.1,2314.4a5.613,5.613,0,0,1,5.7-5.6H2798.2a5.613,5.613,0,0,1,5.7,5.6v108.8a5.613,5.613,0,0,1-5.7,5.6H5.8a5.613,5.613,0,0,1-5.7-5.6Z" fill="#ececec"/>
    <path id="Path_7" data-name="Path 7" d="M2473.3,381.9,2381,2278.1H718.6L615.9,155.8A85.454,85.454,0,0,1,701.8,66l1493.8,9.2Z" fill="#ececec"/>
    <path id="Path_8" data-name="Path 8" d="M2257.8,372.8a85.523,85.523,0,0,1-82.3-92.2l16-202.6,282.1,302.7Z" fill="#ccc"/>
    <path id="Path_9" data-name="Path 9" d="M1552.3,610.5c119,1.7,575.8,7.6,691.1,9.1,14.6.2,26.2,9.8,25.8,21.3-.4,10.8-11.7,19.3-25.6,19.2l-690.7-6.5c-13.3-.1-24.5-8.2-25.8-18.6l-.4-2.6c-1.5-12,10.4-22.1,25.6-21.9Z" fill="#ccc"/>
    <path id="Path_10" data-name="Path 10" d="M1563.4,706l461.1,4.3c6.2,0,11.2,4.1,11,9l-.9,24.5c-.2,4.7-5.1,8.3-11.1,8.2l-474.1-10.2c-3.9-.1-7.5-1.8-9.4-4.5C1530,723,1542.9,705.8,1563.4,706Z" fill="#ccc"/>
    <path id="Path_11" data-name="Path 11" d="M1543,832.4c118.9,1.7,575.7,7.7,691.1,9.2,14.5.2,26.2,9.8,25.7,21.2-.4,10.9-11.7,19.4-25.5,19.3l-690.8-6.5c-13.3-.2-24.5-8.2-25.8-18.7l-.3-2.6c-1.5-11.9,10.3-22.1,25.6-21.9Z" fill="#ccc"/>
    <path id="Path_12" data-name="Path 12" d="M1554,928l461.1,4.2c6.2.1,11.2,4.2,11,9l-.9,24.6c-.2,4.6-5.1,8.3-11,8.2l-474.1-10.2a11.989,11.989,0,0,1-9.5-4.6C1520.6,944.9,1533.5,927.8,1554,928Z" fill="#ccc"/>
    <g id="Group_1" data-name="Group 1" opacity="0.8">
      <path id="Path_13" data-name="Path 13" d="M1341.3,605.2l-43.6,141.1a12.852,12.852,0,0,1-12.3,8.9l-276.6-.4,20.2,65,251.7,2.7c6.1.1,11.1,4,11.1,9.8s-5,9.6-11.1,9.5l-259.2-3.5a10.456,10.456,0,0,1-9.8-7.2L933.3,580.5l-43.4,1.1c-5.4.1-9.8-3.5-9.8-8.9s4.4-9.2,9.8-9.4l50.8-1.3a9.575,9.575,0,0,1,9.5,6.7l9.4,29.6,369.3-7.7c4.1-.1,7.9,1.1,10.4,4.1a11.072,11.072,0,0,1,2,10.5Z" fill="#fff"/>
      <path id="Path_14" data-name="Path 14" d="M1098.4,892.4c0,21-17.5,37.6-39,37-21.3-.6-38.6-17.9-38.6-38.6,0-20.8,17.3-37.4,38.6-37C1080.9,854.1,1098.4,871.4,1098.4,892.4Zm-20.9-.4a18.357,18.357,0,0,0-18.1-18.1,17.492,17.492,0,0,0-18.1,17.3c0,9.7,8.1,17.8,18.1,18A17.349,17.349,0,0,0,1077.5,892Z" fill="#fff" fill-rule="evenodd"/>
      <path id="Path_15" data-name="Path 15" d="M1273.2,896.1c0,21.4-18.4,38.4-41,37.8-22.4-.6-40.5-18.3-40.5-39.6,0-21.2,18.1-38.2,40.5-37.8C1254.8,856.8,1273.2,874.6,1273.2,896.1Zm-21.9-.5c0-10-8.6-18.3-19.1-18.5-10.4-.2-18.9,7.8-18.9,17.7s8.5,18.2,18.9,18.5C1242.7,913.5,1251.3,905.6,1251.3,895.6Z" fill="#fff" fill-rule="evenodd"/>
    </g>
    <path id="Path_16" data-name="Path 16" d="M1127.7,1027.9c-178,0-322.9-144.8-322.9-322.9,0-178,144.9-322.9,322.9-322.9,178.1,0,322.9,144.9,322.9,322.9C1450.6,883.1,1305.8,1027.9,1127.7,1027.9Zm0-618.6C964.7,409.3,832,542,832,705s132.7,295.7,295.7,295.7S1423.4,868,1423.4,705,1290.7,409.3,1127.7,409.3Z" fill="#fff" fill-rule="evenodd" opacity="0.8"/>
    <g id="Group_2" data-name="Group 2" opacity="0.3">
      <path id="Path_17" data-name="Path 17" d="M535,287.2a9.091,9.091,0,0,1-12,4.6c-8.9-4-18.2-7.6-27.4-10.9a9.112,9.112,0,0,1-5.7-11.4v-.1a9.2,9.2,0,0,1,11.6-5.7c9.8,3.4,19.5,7.3,28.9,11.4a9.269,9.269,0,0,1,5,11.2Q535.2,286.7,535,287.2Zm-85.7-18.8c-9.6-1.9-19.4-3.4-29.2-4.5a9.111,9.111,0,0,1,2.1-18.1c10.2,1.1,20.5,2.7,30.7,4.7a9.1,9.1,0,0,1,7.1,10.7,5.305,5.305,0,0,1-.3,1.1,9.082,9.082,0,0,1-10.4,6.1Zm-77-6.5c-9.8.2-19.7.9-29.4,2a9.111,9.111,0,1,1-2.1-18.1c10.2-1.1,20.7-1.9,31-2.2a9.136,9.136,0,0,1,9.3,8.9,8.112,8.112,0,0,1-.4,3.1A9.424,9.424,0,0,1,372.3,261.9Zm-76.6,10.8c-9.5,2.5-19,5.4-28.2,8.6a9.02,9.02,0,0,1-11.6-5.5,9.168,9.168,0,0,1,5.5-11.7c9.8-3.4,19.8-6.4,29.8-9a9.082,9.082,0,0,1,11.1,6.5,9.782,9.782,0,0,1-.2,5.1,9.016,9.016,0,0,1-6.4,6Zm-72.2,27.6c-8.7,4.5-17.3,9.5-25.6,14.7a9.107,9.107,0,0,1-12.6-2.9,8.99,8.99,0,0,1,2.9-12.5c8.7-5.5,17.8-10.7,26.9-15.5a9.142,9.142,0,0,1,12.3,4,9.009,9.009,0,0,1,.6,7,8.848,8.848,0,0,1-4.5,5.2Zm-64.3,43c-7.5,6.3-14.8,13-21.8,19.9a8.935,8.935,0,0,1-12.8,0,9.054,9.054,0,0,1,0-12.9c7.3-7.3,15-14.3,22.8-21a9.143,9.143,0,0,1,14.6,9.8,9.734,9.734,0,0,1-2.8,4.2ZM30.5,656.1a9.105,9.105,0,0,1-10.1-8c-1.1-10.3-1.9-20.7-2.1-31a9.1,9.1,0,1,1,18.2-.5c.2,9.8.9,19.7,2,29.4a8.41,8.41,0,0,1-.4,3.9,8.995,8.995,0,0,1-7.6,6.2ZM106,399.3c-5.9,7.8-11.5,16-16.7,24.3a9.1,9.1,0,1,1-15.4-9.7c5.4-8.7,11.4-17.3,17.6-25.5a8.908,8.908,0,0,1,12.7-1.8,9.064,9.064,0,0,1,3.2,10.1,7.073,7.073,0,0,1-1.4,2.6ZM28.5,576.7a9.05,9.05,0,0,1-8-10.1c1.2-10.2,2.8-20.5,4.8-30.6a9.12,9.12,0,1,1,17.9,3.5c-1.9,9.7-3.5,19.5-4.6,29.2a8.729,8.729,0,0,1-.4,1.8,9.112,9.112,0,0,1-9.7,6.2ZM66.7,465.9c-4,8.9-7.6,18.1-10.9,27.4a9.071,9.071,0,0,1-11.6,5.6,8.975,8.975,0,0,1-5.6-11.4v-.2c3.4-9.8,7.3-19.5,11.5-28.9a9.091,9.091,0,0,1,12-4.6,9.269,9.269,0,0,1,5,11.2Q66.9,465.4,66.7,465.9Z" fill="#ccc"/>
      <path id="Path_18" data-name="Path 18" d="M45,718.4a9.169,9.169,0,0,1-11.4-6.1c-1.4-4.7-2.7-9.5-4-14.3a9.144,9.144,0,0,1,17.7-4.6c1.1,4.6,2.4,9.2,3.8,13.7A9.173,9.173,0,0,1,45,718.4Z" fill="#ccc"/>
    </g>
    <g id="Group_3" data-name="Group 3" opacity="0.3">
      <path id="Path_19" data-name="Path 19" d="M228.2,927.2a9.142,9.142,0,0,1-12.3,4c-4.4-2.2-8.8-4.6-13.1-7.1a9.092,9.092,0,1,1,9-15.8c4.1,2.3,8.3,4.5,12.5,6.7a9.2,9.2,0,0,1,4.5,10.9q-.3.7-.6,1.3Z" fill="#ccc"/>
      <path id="Path_20" data-name="Path 20" d="M722,737.2a9.1,9.1,0,1,1-17-6.5c3.4-9,6.5-18.2,9.2-27.6a9.114,9.114,0,0,1,17.5,5.1q-1.8,6.1-3.7,12.1C726.1,725.9,724.1,731.6,722,737.2Zm9.8-69.8a9.286,9.286,0,0,1-7.7-10.4c1.4-9.5,2.4-19.2,3-28.9a9.12,9.12,0,0,1,18.2,1.2c-.6,10.1-1.7,20.3-3.1,30.4a7.2,7.2,0,0,1-.4,1.5A9.187,9.187,0,0,1,731.8,667.4ZM701.2,782.3c-4.8,8.8-10.1,17.7-15.7,26.1a9.185,9.185,0,0,1-12.7,2.6,9.044,9.044,0,0,1-2.5-12.6q7.95-12.15,15-24.9a9.087,9.087,0,0,1,16.6,7.2,5.578,5.578,0,0,1-.7,1.6Zm35.4-192.9a9.1,9.1,0,0,1-9.8-8.4c-.8-9.6-1.9-19.3-3.5-28.8a9.124,9.124,0,0,1,18-3c1.6,10.1,2.9,20.3,3.6,30.4a7.8,7.8,0,0,1-.4,3.5,9.172,9.172,0,0,1-7.9,6.3ZM655.3,847.8c-6.7,7.6-13.8,15-21.2,22.1a9.124,9.124,0,0,1-12.6-13.2c7-6.7,13.8-13.7,20.1-20.9a9.079,9.079,0,0,1,15.5,8.8,11.37,11.37,0,0,1-1.8,3.2Zm-59.2,53.9c-8.2,5.9-16.8,11.6-25.5,16.9a9.107,9.107,0,0,1-9.4-15.6c8.2-5,16.4-10.4,24.2-16.1a9.138,9.138,0,0,1,12.7,2.1,8.819,8.819,0,0,1,1.3,8.1A9.408,9.408,0,0,1,596.1,901.7Zm-69.6,39.7c-9.3,4-18.9,7.7-28.5,10.9a9.076,9.076,0,0,1-5.8-17.2c9.1-3.1,18.2-6.6,27.1-10.4a9.135,9.135,0,0,1,12,4.7,9.138,9.138,0,0,1-4.8,12ZM450,965c-10,1.9-20.2,3.4-30.3,4.4a9.1,9.1,0,1,1-1.9-18.1c9.6-1,19.3-2.4,28.8-4.2a9.015,9.015,0,0,1,10.6,7.2,8.5,8.5,0,0,1-.3,4.5A9.1,9.1,0,0,1,450,965Zm-79.9,6.1c-10.2-.3-20.4-1.1-30.5-2.3a9.111,9.111,0,1,1,2.1-18.1c9.6,1.2,19.4,1.9,29,2.2a8.919,8.919,0,0,1,8.3,11.9,8.949,8.949,0,0,1-8.9,6.3Zm-79.3-11.5c-7.2-1.8-14.5-4-21.6-6.3q-3.8-1.2-7.6-2.5a9.108,9.108,0,1,1,6-17.2q3.6,1.2,7.3,2.4c6.7,2.2,13.6,4.2,20.5,6a9.037,9.037,0,0,1,6.5,11.1,1.113,1.113,0,0,1-.1.5,9.142,9.142,0,0,1-11,6Z" fill="#ccc"/>
      <path id="Path_21" data-name="Path 21" d="M723.9,512.1a9.251,9.251,0,0,1-11.4-6.1c-1.3-4.4-2.8-9-4.4-13.4a9.125,9.125,0,1,1,17.2-6.1c1.6,4.7,3.2,9.5,4.7,14.2a9.233,9.233,0,0,1-6.1,11.4Z" fill="#ccc"/>
    </g>
    <path id="Path_22" data-name="Path 22" d="M625.6,485.2a4.207,4.207,0,0,1-.2,4.9l-32.1,40.7a223.264,223.264,0,0,1,13.1,72l44.3,26.9a4.18,4.18,0,0,1,1.9,4.5l-13.1,60.7a4.358,4.358,0,0,1-3.7,3.4l-51.4,6.1a226.705,226.705,0,0,1-41.7,60.1L555,814.8a4.18,4.18,0,0,1-1.8,4.6l-52.3,33.7a4.061,4.061,0,0,1-4.9-.3l-40.7-32a228.784,228.784,0,0,1-72,13.1l-26.8,44.2a4.3,4.3,0,0,1-4.6,2l-60.7-13.2a4.139,4.139,0,0,1-3.3-3.6l-6.2-51.5a224.083,224.083,0,0,1-60.1-41.6l-50.3,12.3a4.237,4.237,0,0,1-4.6-1.9l-33.6-52.2a4.371,4.371,0,0,1,.2-5l32-40.7a225.3,225.3,0,0,1-13-71.9L108,583.9a4.308,4.308,0,0,1-2-4.5l13.2-60.8a4.253,4.253,0,0,1,3.7-3.3l51.4-6.1A224.41,224.41,0,0,1,216,449.1l-12.3-50.4a4.238,4.238,0,0,1,1.8-4.6l52.2-33.6a4.357,4.357,0,0,1,5,.2l40.7,32.1a225.99,225.99,0,0,1,72-13.1l26.8-44.3a4.392,4.392,0,0,1,4.6-1.9l60.7,13.1a4.253,4.253,0,0,1,3.3,3.7l6.2,51.4a226.7,226.7,0,0,1,60.1,41.7l50.3-12.3a4.333,4.333,0,0,1,4.6,1.8Z" fill="#ccc"/>
    <path id="Path_23" data-name="Path 23" d="M435.3,634.6a62.293,62.293,0,1,1,3.5-8.5,61.727,61.727,0,0,1-3.5,8.5ZM333.9,622.1a47.668,47.668,0,1,0-.2-30,47.742,47.742,0,0,0,.2,30Z" fill="#fff" fill-rule="evenodd"/>
    <path id="Path_24" data-name="Path 24" d="M461.3,736.6a152.617,152.617,0,0,1-115.7,20.9,134.658,134.658,0,0,1-15.2-4.1A153.586,153.586,0,0,1,228,574.9c18-82.8,99.9-135.6,182.7-117.6a143.617,143.617,0,0,1,15.1,4,153.6,153.6,0,0,1,57.4,34,3.627,3.627,0,0,1-3.6,6.1,4.8,4.8,0,0,1-1.4-.8,147.585,147.585,0,0,0-69-36.2c-78.9-17.1-156.9,33.1-174,112a146.289,146.289,0,0,0,97.4,170.1q7.2,2.3,14.6,3.9a146.23,146.23,0,0,0,177.3-143,3.671,3.671,0,0,1,3.7-3.6,5.62,5.62,0,0,1,1.1.1,3.664,3.664,0,0,1,2.5,3.5v3.2a155.309,155.309,0,0,1-2.5,24.4q-.5,2.5-1,4.9-1.7,7.8-4.1,15.3a152.588,152.588,0,0,1-62.9,81.4Z" fill="#fff"/>
    <g id="Group_4" data-name="Group 4" opacity="0.3">
      <path id="Path_25" data-name="Path 25" d="M859.1,66.3a5.645,5.645,0,0,1-7.8,1.5c-3.8-2.6-7.7-5.1-11.6-7.4a5.651,5.651,0,0,1,5.8-9.7c4.1,2.5,8.2,5.1,12.1,7.8a5.693,5.693,0,0,1,2.2,6.4A13.708,13.708,0,0,1,859.1,66.3Z" fill="#ccc"/>
      <path id="Path_26" data-name="Path 26" d="M821.8,44.4a5.68,5.68,0,0,1-7.5,2.8,232.186,232.186,0,0,0-22-8.4q-2.4-.8-4.8-1.5a5.628,5.628,0,0,1-3.7-7,5.816,5.816,0,0,1,7-3.8l5,1.6a238.558,238.558,0,0,1,23.1,8.8,5.623,5.623,0,0,1,3.1,6.9l-.2.6ZM759.7,30.7a224.213,224.213,0,0,0-28.4-3.1,5.665,5.665,0,0,1-5.3-5.9,5.747,5.747,0,0,1,5.9-5.4,251.449,251.449,0,0,1,29.8,3.3,5.627,5.627,0,0,1,4.5,6.5,1.775,1.775,0,0,1-.2.8,5.584,5.584,0,0,1-6.3,3.8ZM702.8,28a223.927,223.927,0,0,0-28.3,3.9,5.619,5.619,0,1,1-2.3-11,230.471,230.471,0,0,1,29.7-4.1,5.61,5.61,0,0,1,6.1,5.1,7.632,7.632,0,0,1-.3,2.2A5.73,5.73,0,0,1,702.8,28ZM646.9,39.3a253.645,253.645,0,0,0-26.5,10.8,5.658,5.658,0,0,1-4.9-10.2,230.588,230.588,0,0,1,27.8-11.2,5.628,5.628,0,0,1,7.1,3.5,5.252,5.252,0,0,1,0,3.5,5.469,5.469,0,0,1-3.5,3.6ZM595.4,64a237.488,237.488,0,0,0-23,16.8,5.608,5.608,0,1,1-7.2-8.6,245.758,245.758,0,0,1,24.2-17.7,5.679,5.679,0,0,1,8.4,6.5A5.783,5.783,0,0,1,595.4,64Zm-43.9,36.4a224.813,224.813,0,0,0-18.2,21.9,5.621,5.621,0,0,1-9.1-6.6,235.127,235.127,0,0,1,19.2-23.1,5.646,5.646,0,0,1,7.9-.2,5.527,5.527,0,0,1,1.5,5.8A6.2,6.2,0,0,1,551.5,100.4Zm-33.6,45.9a243.814,243.814,0,0,0-12.3,25.8,5.59,5.59,0,0,1-7.3,3.1,5.522,5.522,0,0,1-3.1-7.3,222.756,222.756,0,0,1,12.9-27,5.6,5.6,0,0,1,7.6-2.2,5.436,5.436,0,0,1,2.6,6.6,2.257,2.257,0,0,1-.4,1ZM484.5,232a5.559,5.559,0,0,1-4.8-6.3,256.908,256.908,0,0,1,5-25.6l1-3.8a5.64,5.64,0,0,1,10.9,2.9l-1,3.6a233.051,233.051,0,0,0-4.7,24.4,5.7,5.7,0,0,1-.3,1,5.551,5.551,0,0,1-6.1,3.8Z" fill="#ccc"/>
    </g>
    <g id="Group_5" data-name="Group 5" opacity="0.3">
      <path id="Path_27" data-name="Path 27" d="M950.5,337.5a246.86,246.86,0,0,1-11.2,27.2,5.67,5.67,0,0,1-7.5,2.7,5.776,5.776,0,0,1-2.6-7.6,228.222,228.222,0,0,0,10.6-26,5.645,5.645,0,0,1,10.7,3.6Zm1.1-24.1a5.709,5.709,0,0,1-4.4-6.7,216.841,216.841,0,0,0,4.2-27.8,5.754,5.754,0,0,1,6.1-5.1,5.61,5.61,0,0,1,5.1,6.1,260.084,260.084,0,0,1-4.3,29.2l-.2.6a5.709,5.709,0,0,1-6.5,3.7ZM925,390.5a268.3,268.3,0,0,1-17.4,23.8,5.788,5.788,0,0,1-8,.7,5.574,5.574,0,0,1-.7-7.9,231.517,231.517,0,0,0,16.6-22.7,5.636,5.636,0,0,1,10.1,4.8,4.615,4.615,0,0,1-.6,1.3Zm32.9-134.2a5.612,5.612,0,0,1-5.8-5.5,217.739,217.739,0,0,0-2.7-27.9,5.623,5.623,0,1,1,11.1-1.8,241.963,241.963,0,0,1,2.8,29.3,4.878,4.878,0,0,1-.2,2A5.722,5.722,0,0,1,957.9,256.3ZM887.4,435.7a240.6,240.6,0,0,1-22.6,18.9,5.61,5.61,0,1,1-6.7-9,232.544,232.544,0,0,0,21.6-18.1,5.664,5.664,0,0,1,9.2,5.9,5.739,5.739,0,0,1-1.5,2.3Zm-47.3,34.9a232.23,232.23,0,0,1-26.5,13,5.627,5.627,0,0,1-4.3-10.4,227.6,227.6,0,0,0,25.3-12.4,5.6,5.6,0,0,1,7.6,2.2,5.9,5.9,0,0,1,.5,4.5,5.275,5.275,0,0,1-2.6,3.1Zm-54.3,22.6a224.164,224.164,0,0,1-28.8,6.2,5.514,5.514,0,0,1-6.4-4.7,5.618,5.618,0,0,1,4.7-6.4,234.541,234.541,0,0,0,27.4-5.9,5.572,5.572,0,0,1,6.9,7.1,5.445,5.445,0,0,1-3.8,3.7Z" fill="#ccc"/>
      <path id="Path_28" data-name="Path 28" d="M950.2,199a5.6,5.6,0,0,1-7-3.8c-1.3-4.4-2.7-8.8-4.2-13.1a5.694,5.694,0,0,1,3.5-7.2,5.547,5.547,0,0,1,7.1,3.5c1.6,4.4,3.1,9,4.4,13.7a5.8,5.8,0,0,1,0,3.2,5.633,5.633,0,0,1-3.8,3.7Z" fill="#ccc"/>
    </g>
    <path id="Path_29" data-name="Path 29" d="M883.4,177.3a2.705,2.705,0,0,1-.2,3.3l-21.4,27.3a149.417,149.417,0,0,1,8.7,48.1l29.7,18a2.91,2.91,0,0,1,1.3,3l-8.8,40.7a2.869,2.869,0,0,1-2.5,2.2L855.8,324a147.569,147.569,0,0,1-27.9,40.2l8.3,33.7a2.966,2.966,0,0,1-1.3,3.1L800,423.5a2.848,2.848,0,0,1-3.3-.2l-27.3-21.4a149.418,149.418,0,0,1-48.1,8.7l-18,29.7a3.064,3.064,0,0,1-3.1,1.3l-40.6-8.8a2.869,2.869,0,0,1-2.2-2.5l-4.1-34.4A147.572,147.572,0,0,1,613.1,368l-33.7,8.3a2.966,2.966,0,0,1-3.1-1.3l-22.5-34.9a2.846,2.846,0,0,1,.1-3.3l21.5-27.3a152.254,152.254,0,0,1-8.8-48.1l-29.6-18a3.064,3.064,0,0,1-1.3-3.1l8.8-40.6a2.869,2.869,0,0,1,2.5-2.2l34.4-4.1a147.568,147.568,0,0,1,27.9-40.2L601,119.5a2.815,2.815,0,0,1,1.3-3.1l34.9-22.5a2.853,2.853,0,0,1,3.3.1l27.3,21.5a152.255,152.255,0,0,1,48.1-8.8l18-29.6a2.985,2.985,0,0,1,3-1.3l40.7,8.8a2.869,2.869,0,0,1,2.2,2.5l4.1,34.4a147.572,147.572,0,0,1,40.2,27.9l33.7-8.3a2.906,2.906,0,0,1,3.1,1.2Z" fill="#ccc"/>
    <path id="Path_30" data-name="Path 30" d="M756.7,277.6a42.524,42.524,0,0,1-57,19.2,42.53,42.53,0,1,1,37.8-76.2,42.6,42.6,0,0,1,21.6,51.2,53.339,53.339,0,0,1-2.4,5.8Zm-52,9.1a31.5,31.5,0,0,0,23.9,1.7,31.176,31.176,0,0,0,18-15.8,31.26,31.26,0,1,0-56-27.8,28.435,28.435,0,0,0-1.8,4.2,31.323,31.323,0,0,0,15.9,37.7Z" fill="#fff" fill-rule="evenodd"/>
    <path id="Path_31" data-name="Path 31" d="M695.4,362.7q-5.4-1.2-10.6-2.9a105.994,105.994,0,0,1,55.5-204.3q5.2,1.2,10.4,2.8a106.949,106.949,0,0,1,39.6,23.4,5.66,5.66,0,0,1-5.6,9.5,5.3,5.3,0,0,1-2.1-1.3A94.187,94.187,0,0,0,747.2,169a91.194,91.194,0,0,0-9.3-2.5,94.735,94.735,0,0,0-49.6,182.6q4.7,1.5,9.5,2.6a94.286,94.286,0,0,0,71.3-12.9,3.278,3.278,0,0,0,.5-.4.288.288,0,0,1,.2-.1,97.056,97.056,0,0,0,19.3-16.7,94.43,94.43,0,0,0,21.1-41.4l.2-1a97.428,97.428,0,0,0,2.2-20.1,5.591,5.591,0,0,1,5.6-5.6,4.8,4.8,0,0,1,1.7.3,5.491,5.491,0,0,1,3.9,5.3v1a109.613,109.613,0,0,1-2.4,21.4q-1.2,5.4-2.8,10.5a106.183,106.183,0,0,1-123.2,70.7Z" fill="#fff"/>
    <path id="Path_32" data-name="Path 32" d="M1609.3,1501.1c0,208.9-169.4,378.2-378.3,378.2S852.8,1710,852.8,1501.1s169.3-378.3,378.2-378.3,378.3,169.4,378.3,378.3Z" fill="#fff"/>
    <path id="Path_33" data-name="Path 33" d="M1596.8,1502.7c0,202.4-164,366.4-366.4,366.4S864,1705.1,864,1502.7c0-202.3,164-366.4,366.4-366.4S1596.8,1300.4,1596.8,1502.7Z" fill="#ccc"/>
    <path id="Path_34" data-name="Path 34" d="M1398.8,1745.6a46.305,46.305,0,0,1-35.5-16.5l-326.9-390a46.279,46.279,0,1,1,70.9-59.5l326.9,390a46.246,46.246,0,0,1-35.4,76Z" fill="#fff"/>
    <path id="Path_35" data-name="Path 35" d="M1031,1742.7a46.25,46.25,0,0,1-32.1-79.6l385.8-370.9a46.254,46.254,0,1,1,64.1,66.7L1063,1729.8a45.571,45.571,0,0,1-32,12.9Z" fill="#fff"/>
    <path id="Path_36" data-name="Path 36" d="M1441.7,2603.2c.5-.2,286.9-501.8,325.6-549a29.924,29.924,0,0,1,26.8-10.8l80,9.5,93.9,203.2L1811.5,2165c15.5,107.1-185.5,266.2-254.4,324.3a15.775,15.775,0,0,0-1.3,23l27.5,28.8c-45.2,45.8-97.3,75.2-156.1,88.8Z" fill="#fff"/>
    <path id="Path_37" data-name="Path 37" d="M1567.4,2525.6s17.6,5.7,23.5,21.3c2.9,7.5-.2,16-6.7,20.6-28.9,20.7-124.3,87.6-168.4,100.7a4.911,4.911,0,0,1-6.2-5.8c2.3-10.3,9.6-30.7,33.1-60.6l-2.1,4.3a6.148,6.148,0,0,0,8.5,8.1c29.4-16.7,89.4-53,118.3-88.6Z" fill="#ccc"/>
    <path id="Path_38" data-name="Path 38" d="M1553.2,2726.3c.5-.3,43.5-103.9,44-104.2,39.4-239.9,135.5-445.3,163.9-499.4a29.613,29.613,0,0,1,24-15.9l80.2-6.9,133.1,180-171.6-57.6c36.8,101.7-127.9,298.3-183.6,369.1a15.771,15.771,0,0,0,3.4,22.8l32.8,22.7q-52.5,80.85-135,118.5Z" fill="#fff"/>
    <path id="Path_39" data-name="Path 39" d="M1660.7,2624.8s18.3,2,27.3,16.2c4.3,6.7,3,15.6-2.4,21.5-24.1,26.2-104,111-144.5,132.7a4.99,4.99,0,0,1-7.3-4.5c.2-10.4,3.2-31.9,20.2-65.9l-1.2,4.6a6.126,6.126,0,0,0,9.9,6.2C1588.2,2713.3,1639.6,2665.5,1660.7,2624.8Z" fill="#ccc"/>
    <path id="Path_40" data-name="Path 40" d="M2240.8,2062s72.6,107.9,78.6,157.2c5.9,49.2-20.1,66.2-96.1,72.5-226,18.7-337.4-49-337.4-49-15.5-98.6-26.5-123.7-155.6-177.3,0,0,163.3,13,196.2.2s314.3-3.6,314.3-3.6Z" fill="#ccc"/>
    <path id="Path_41" data-name="Path 41" d="M1951.4,1457.3s50.6-59.8,104.3,13.5c9.8,13.3,47.1,2.4,60.8,30.2,7.1,14.3,22.4,22.5,38.1,19.6,39.3-7.2,103.3-7.8,135,53.6,24.1,46.9,5.5,74.4-18.7,90-17.7,11.5-24,34.8-13.3,53,10.3,17.5,12.2,41.2-14.3,69.6-59.5,63.8-177.4-40.5-177.4-40.5l-93.5-221Z" fill="#949494"/>
    <path id="Path_42" data-name="Path 42" d="M2044.6,2047.7s-84.5-80.5-126.1-133.7a113.185,113.185,0,0,1-19.2-101.8c19-64,52.8-130.3,55.8-140.6,4.8-15.8,99.5-15.1,99.5-15.1s186.5,121,259.7,326l-82.2,25.6s-48.7-81.7-96.8-133.6c0,0,83.2,109.9,86.1,154.9Z" fill="#ccc"/>
    <path id="Path_43" data-name="Path 43" d="M1883.6,2079.5l63.5-69.1,73.3,19.7s85.5,13.3,134.4,0l49-13.2,110.5-34.4,17.4,49a29.6,29.6,0,0,1-10.8,34c-9.6,6.8-20.8,14.3-27.9,17.4-14.6,6.4-335.5,2-335.5,2Z" fill="#fff"/>
    <path id="Path_44" data-name="Path 44" d="M1989.5,1542.5l63.7,118.5c-4.2,25.8-69.3,26.5-79.4,11.1a16.5,16.5,0,0,1-2-5.2l-38.1-79.2c-1.6-7.7,19.5-33.7,26.5-37.4l25.3-13.4C1995.2,1531.7,1954.6,1531.3,1989.5,1542.5Z" fill="#fff"/>
    <path id="Path_45" data-name="Path 45" d="M1989.8,1537c8.7,50.7-10.4,80.9-26.3,99-15.9,18.2-47.2,20.5-78.6-30.4-31.5-50.9-24.3-90.9-24.3-90.9,10.9-51,120.6-28.5,129.2,22.3Z" fill="#fff"/>
    <path id="Path_46" data-name="Path 46" d="M1951.8,1542.5s-51-66.9-90.1-8.6l.7,20.1s-50.8-2.3-45.3-49.2,47-78.9,104.5-62.9c57.6,16,91.2,34.3,97.7,74.2,6.5,40-26.1,33.4-26.1,33.4s-12.5-27.5-27.5-29.4c-15.1-1.9-9.6,19.9-9.6,19.9Z" fill="#949494"/>
    <path id="Path_47" data-name="Path 47" d="M1963.4,1540.7s-26.3-34.2-2.3-41.3c24-7.2,23.1,33.5,21.5,48.6Z" fill="#fff"/>
    <path id="Path_48" data-name="Path 48" d="M2093.7,2106.8h-.6l-292.1-.3a13.145,13.145,0,0,1-13.1-13.1,13,13,0,0,1,13.1-13l292.1.3a13.145,13.145,0,0,1,13.1,13.1A13.006,13.006,0,0,1,2093.7,2106.8Z" fill="#fff"/>
    <path id="Path_49" data-name="Path 49" d="M1538.5,1841.6h243.2a46.369,46.369,0,0,1,41.9,26.6l112.5,238.5H1633.8a28.09,28.09,0,0,1-26.2-17.9l-87.2-220.6a19.423,19.423,0,0,1,18.1-26.6Z" fill="#949494"/>
    <path id="Path_50" data-name="Path 50" d="M1709.8,1963.9c5.3,16.4,1.4,32.3-8.7,35.5-10.1,3.3-22.5-7.4-27.8-23.8-5.2-16.3-1.3-32.2,8.7-35.5C1692.1,1936.9,1704.5,1947.5,1709.8,1963.9Z" fill="#fff"/>
  </g>
</svg>
